<?xml version="1.0" standalone="no"?>
<!DOCTYPE svg PUBLIC "-//W3C//DTD SVG 20010904//EN"
 "http://www.w3.org/TR/2001/REC-SVG-20010904/DTD/svg10.dtd">
<svg version="1.0" xmlns="http://www.w3.org/2000/svg"
 width="200.000000pt" height="200.000000pt" viewBox="0 0 200.000000 200.000000"
 preserveAspectRatio="xMidYMid meet">

<g transform="translate(0.000000,200.000000) scale(0.100000,-0.100000)"
fill="#000000" stroke="none">
<path d="M1435 1703 c-133 -85 -331 -174 -452 -203 -80 -18 -136 -59 -167
-121 -36 -72 -34 -107 6 -146 29 -28 35 -30 51 -19 16 13 15 16 -12 45 -25 26
-28 36 -21 60 19 68 66 114 133 131 133 34 344 124 458 196 21 13 41 24 44 24
16 0 1 -63 -25 -98 -34 -48 -82 -75 -161 -91 -59 -12 -83 -32 -132 -105 -36
-54 -101 -105 -283 -221 -88 -56 -173 -119 -194 -143 -42 -47 -98 -184 -107
-264 -5 -39 -12 -52 -44 -78 -74 -59 -75 -156 -4 -219 29 -25 45 -31 81 -31
25 0 54 5 65 10 13 8 25 7 39 0 37 -20 117 -29 173 -20 135 22 178 46 201 115
18 52 37 51 51 -3 18 -78 84 -115 145 -82 46 24 74 237 74 555 0 258 3 236
-60 426 -4 12 3 18 30 22 121 20 219 139 201 246 -10 63 -15 63 -90 14z m-172
-335 c47 -125 63 -294 48 -513 -16 -226 -39 -363 -63 -376 -31 -16 -68 13 -68
54 0 51 -24 77 -70 77 -43 0 -48 -5 -70 -70 -13 -40 -20 -47 -65 -64 -51 -19
-192 -28 -226 -14 -15 6 -15 11 -2 52 14 42 14 50 -2 91 -19 52 -53 82 -101
91 -19 3 -34 10 -34 14 0 31 46 173 71 220 36 68 45 75 234 196 169 108 245
170 288 234 18 28 35 50 38 50 4 0 14 -19 22 -42z m-585 -733 c17 -14 34 -39
37 -56 8 -34 -12 -92 -29 -86 -22 7 -66 83 -72 125 -6 38 -5 42 14 42 11 0 34
-11 50 -25z m-108 -20 c0 -36 27 -95 56 -127 25 -25 25 -26 6 -32 -24 -8 -81
13 -100 37 -22 26 -26 81 -8 115 20 39 46 42 46 7z"/>
<path d="M934 1365 c-4 -9 -2 -21 4 -27 15 -15 44 -1 40 19 -4 23 -36 29 -44
8z"/>
</g>
</svg>
